<svg width="450" height="450" id="svg_id"
     xmlns="http://www.w3.org/2000/svg">

    <rect width="100%" height="100%" fill="white" />


    <rect width="195" height="195" fill="red" x="30" y="30"/>
    <polygon points="112,225 225,225 225,415" fill="red"/>
    <path d="M225,225 v-160, -28 a180,170 0 0,0 -197, 180 z" transform="rotate(177.5, 220, 225)"
          fill="red"  />

    <!-- OX OY -->
    <line x1="225" x2="225" y1="0" y2="450" stroke="black" fill="transparent" stroke-width="1"/>
    <line x1="0" x2="450" y1="225" y2="225" stroke="black" fill="transparent" stroke-width="1"/>

    <line x1="0" x2="15" y1="225" y2="235" stroke="black" fill="transparent" stroke-width="1"/>
    <line x1="0" x2="15" y1="225" y2="215" stroke="black" fill="transparent" stroke-width="1"/>
    <line x1="450" x2="435" y1="225" y2="235" stroke="black" fill="transparent" stroke-width="1"/>
    <line x1="450" x2="435" y1="225" y2="215" stroke="black" fill="transparent" stroke-width="1"/>
    <line x1="225" x2="235" y1="0" y2="15" stroke="black" fill="transparent" stroke-width="1"/>
    <line x1="225" x2="215" y1="0" y2="15" stroke="black" fill="transparent" stroke-width="1"/>
    <line x1="225" x2="215" y1="450" y2="435" stroke="black" fill="transparent" stroke-width="1"/>
    <line x1="225" x2="235" y1="450" y2="435" stroke="black" fill="transparent" stroke-width="1"/>

    <!-- horizontal marks -->
    <line x1="37.5" x2="37.5" y1="215" y2="235" stroke="black" fill="transparent" stroke-width="1" class="svg_horizontal_marks"/>
    <line x1="75" x2="75" y1="215" y2="235" stroke="black" fill="transparent" stroke-width="1" class="svg_horizontal_marks"/>
    <line x1="112.5" x2="112.5" y1="215" y2="235" stroke="black" fill="transparent" stroke-width="1" class="svg_horizontal_marks"/>
    <line x1="150" x2="150" y1="215" y2="235" stroke="black" fill="transparent" stroke-width="1" class="svg_horizontal_marks"/>
    <line x1="187.5" x2="187.5" y1="215" y2="235" stroke="black" fill="transparent" stroke-width="1" class="svg_horizontal_marks"/>
    <line x1="262.5" x2="262.5" y1="215" y2="235" stroke="black" fill="transparent" stroke-width="1" class="svg_horizontal_marks"/>
    <line x1="300" x2="300" y1="215" y2="235" stroke="black" fill="transparent" stroke-width="1" class="svg_horizontal_marks"/>
    <line x1="337.5" x2="337.5" y1="215" y2="235" stroke="black" fill="transparent" stroke-width="1" class="svg_horizontal_marks"/>
    <line x1="375" x2="375" y1="215" y2="235" stroke="black" fill="transparent" stroke-width="1" class="svg_horizontal_marks"/>
    <line x1="412.5" x2="412.5" y1="215" y2="235" stroke="black" fill="transparent" stroke-width="1" class="svg_horizontal_marks"/>

    <!-- vertical marks -->
    <line x1="215" x2="235" y1="37.5" y2="37.5" stroke="black" fill="transparent" stroke-width="1" class="svg_vertical_marks"/>
    <line x1="215" x2="235" y1="75" y2="75" stroke="black" fill="transparent" stroke-width="1" class="svg_vertical_marks"/>
    <line x1="215" x2="235" y1="112.5" y2="112.5" stroke="black" fill="transparent" stroke-width="1" class="svg_vertical_marks"/>
    <line x1="215" x2="235" y1="150" y2="150" stroke="black" fill="transparent" stroke-width="1" class="svg_vertical_marks"/>
    <line x1="215" x2="235" y1="187.5" y2="187.5" stroke="black" fill="transparent" stroke-width="1" class="svg_vertical_marks"/>

    <line x1="215" x2="235" y1="262.5" y2="262.5" stroke="black" fill="transparent" stroke-width="1" class="svg_vertical_marks"/>
    <line x1="215" x2="235" y1="300" y2="300" stroke="black" fill="transparent" stroke-width="1" class="svg_vertical_marks"/>
    <line x1="215" x2="235" y1="337.5" y2="337.5" stroke="black" fill="transparent" stroke-width="1" class="svg_vertical_marks"/>
    <line x1="215" x2="235" y1="375" y2="375" stroke="black" fill="transparent" stroke-width="1" class="svg_vertical_marks"/>
    <line x1="215" x2="235" y1="412.5" y2="412.5" stroke="black" fill="transparent" stroke-width="1" class="svg_vertical_marks"/>

    <!-- horizontal numbers -->
    <text x="35" y="250" class="svg_numbers horizontal_numbers">-5</text>
    <text x="73" y="250" class="svg_numbers horizontal_numbers">-4</text>
    <text x="110" y="250" class="svg_numbers horizontal_numbers">-3</text>
    <text x="148" y="250" class="svg_numbers horizontal_numbers">-2</text>
    <text x="185" y="250" class="svg_numbers horizontal_numbers">-1</text>
    <text x="260" y="250" class="svg_numbers horizontal_numbers">1</text>
    <text x="298" y="250" class="svg_numbers horizontal_numbers">2</text>
    <text x="335" y="250" class="svg_numbers horizontal_numbers">3</text>
    <text x="373" y="250" class="svg_numbers horizontal_numbers">4</text>
    <text x="410" y="250" class="svg_numbers horizontal_numbers">5</text>

    <!-- vertical numbers -->
    <text x="240" y="266" class="svg_numbers vertical_numbers">-1</text>
    <text x="240" y="303" class="svg_numbers vertical_numbers">-2</text>
    <text x="240" y="340" class="svg_numbers vertical_numbers">-3</text>
    <text x="240" y="378" class="svg_numbers vertical_numbers">-4</text>
    <text x="240" y="415" class="svg_numbers vertical_numbers">-5</text>

    <text x="240" y="41" class="svg_numbers vertical_numbers">5</text>
    <text x="240" y="79" class="svg_numbers vertical_numbers">4</text>
    <text x="240" y="117" class="svg_numbers vertical_numbers">3</text>
    <text x="240" y="154" class="svg_numbers vertical_numbers">2</text>
    <text x="240" y="192" class="svg_numbers vertical_numbers">1</text>


</svg>